<?xml version="1.0" standalone="no"?>
<!DOCTYPE svg PUBLIC "-//W3C//DTD SVG 1.1//EN" "http://www.w3.org/Graphics/SVG/1.1/DTD/svg11.dtd" >
<svg xmlns="http://www.w3.org/2000/svg">
<metadata>Generated by IcoMoon</metadata>
<defs>
<font id="icomoon" horiz-adv-x="1024">
<font-face units-per-em="1024" ascent="960" descent="-64" />
<missing-glyph horiz-adv-x="1024" />
<glyph unicode="&#x20;" horiz-adv-x="512" d="" />
<glyph unicode="&#xe900;" d="M948.6 257c-13.8 0-20.7 9.8-25.7 17-5.1 7.3-7.7 10.2-12.7 10.2s-7.5-3-12.7-10.2c-5.1-7.2-12-17-25.7-17-13.8 0-20.7 9.8-25.7 17-5.1 7.3-7.7 10.2-12.7 10.2s-7.5-3-12.7-10.2c-5.1-7.2-12-17-25.7-17s-20.7 9.8-25.7 17c-5.1 7.3-7.7 10.2-12.7 10.2-4.4 0-8 3.6-8 8s3.6 8 8 8c13.8 0 20.7-9.8 25.7-17 5.1-7.3 7.7-10.2 12.7-10.2s7.5 3 12.7 10.2c5.1 7.2 12 17 25.7 17 13.8 0 20.7-9.8 25.7-17 5.1-7.3 7.7-10.2 12.7-10.2s7.5 3 12.7 10.2c5.1 7.2 12 17 25.7 17s20.7-9.8 25.7-17c5.1-7.3 7.7-10.2 12.7-10.2 4.4 0 8-3.6 8-8s-3.6-8-8-8zM948.6 307c-13.8 0-20.7 9.8-25.7 17-5.1 7.3-7.7 10.2-12.7 10.2s-7.5-3-12.7-10.2c-5.1-7.2-12-17-25.7-17-13.8 0-20.7 9.8-25.7 17-5.1 7.3-7.7 10.2-12.7 10.2s-7.5-3-12.7-10.2c-5.1-7.2-12-17-25.7-17s-20.7 9.8-25.7 17c-5.1 7.3-7.7 10.2-12.7 10.2-4.4 0-8 3.6-8 8s3.6 8 8 8c13.8 0 20.7-9.8 25.7-17 5.1-7.3 7.7-10.2 12.7-10.2s7.5 3 12.7 10.2c5.1 7.2 12 17 25.7 17 13.8 0 20.7-9.8 25.7-17 5.1-7.3 7.7-10.2 12.7-10.2s7.5 3 12.7 10.2c5.1 7.2 12 17 25.7 17s20.7-9.8 25.7-17c5.1-7.3 7.7-10.2 12.7-10.2 4.4 0 8-3.6 8-8s-3.6-8-8-8zM261.6 677.1c-13.8 0-20.7 9.8-25.7 17-5.1 7.3-7.7 10.2-12.7 10.2s-7.5-3-12.7-10.2c-5.1-7.2-12-17-25.7-17-13.8 0-20.7 9.8-25.7 17-5.1 7.3-7.7 10.2-12.7 10.2s-7.5-3-12.7-10.2c-5.1-7.2-12-17-25.7-17-13.8 0-20.7 9.8-25.7 17-5.1 7.3-7.7 10.2-12.7 10.2-4.4 0-8 3.6-8 8s3.6 8 8 8c13.8 0 20.7-9.9 25.7-17 5.1-7.3 7.7-10.2 12.7-10.2s7.5 3 12.7 10.2c5.1 7.2 12 17 25.7 17 13.8 0 20.7-9.8 25.7-17 5.1-7.3 7.7-10.2 12.7-10.2s7.5 3 12.7 10.2c5.1 7.2 12 17 25.7 17s20.7-9.8 25.7-17c5.1-7.3 7.7-10.2 12.7-10.2 4.4 0 8-3.6 8-8s-3.6-8-8-8zM261.6 727c-13.8 0-20.7 9.8-25.7 17-5.1 7.3-7.7 10.2-12.7 10.2s-7.5-3-12.7-10.2c-5.1-7.2-12-17-25.7-17-13.8 0-20.7 9.8-25.7 17-5.1 7.3-7.7 10.2-12.7 10.2s-7.5-3-12.7-10.2c-5.1-7.2-12-17-25.7-17-13.8 0-20.7 9.8-25.7 17-5.1 7.3-7.7 10.2-12.7 10.2-4.4 0-8 3.6-8 8s3.6 8 8 8c13.8 0 20.7-9.8 25.7-17 5.1-7.3 7.7-10.2 12.7-10.2s7.5 3 12.7 10.2c5.1 7.2 12 17 25.7 17 13.8 0 20.7-9.8 25.7-17 5.1-7.3 7.7-10.2 12.7-10.2s7.5 3 12.7 10.2c5.1 7.2 12 17 25.7 17 13.8 0 20.7-9.8 25.7-17 5.1-7.3 7.7-10.2 12.7-10.2 4.4 0 8-3.6 8-8s-3.6-8-8-8z" />
<glyph unicode="&#xe901;" d="M316.7 856.7c0-17.673 14.327-32 32-32s32 14.327 32 32v0c0 17.673-14.327 32-32 32s-32-14.327-32-32v0z" />
<glyph unicode="&#xe902;" d="M348.7 816.7c-22.1 0-40 17.9-40 40s17.9 40 40 40 40-17.9 40-40-18-40-40-40zM348.7 880.7c-13.2 0-24-10.8-24-24s10.8-24 24-24 24 10.8 24 24-10.8 24-24 24z" />
<glyph unicode="&#xe903;" d="M554.1 551.2c58.3 0 105.5 47.2 105.5 105.5s-47.2 105.5-105.5 105.5-105.5-47.2-105.5-105.5 47.2-105.5 105.5-105.5z" />
<glyph unicode="&#xe904;" d="M330.6 332.7l224 324h-448z" />
<glyph unicode="&#xe905;" d="M500.6 578.7h-340l170-246z" />
<glyph unicode="&#xe906;" d="M330.6 346.8l54.5 78.8c-18.2-5.1-28.8-25.9-49.1-23.5-25.5 3-24 37.8-42.7 40.5-3.3 0.5-15.1 3.7-28-1.3l65.3-94.5z" />
<glyph unicode="&#xe907;" d="M823.1 551.2c58.3 0 105.5 47.2 105.5 105.5s-47.2 105.5-105.5 105.5-105.5-47.2-105.5-105.5 47.2-105.5 105.5-105.5z" />
<glyph unicode="&#xe908;" d="M599.6 332.7l224 324h-448z" />
<glyph unicode="&#xe909;" d="M769.5 578.7h-340l170-246z" />
<glyph unicode="&#xe90a;" d="M599.6 346.8l54.5 78.8c-18.2-5.1-28.8-25.9-49.1-23.5-25.5 3-24 37.8-42.7 40.5-3.3 0.5-15.1 3.7-28-1.3l65.3-94.5z" />
<glyph unicode="&#xe90b;" d="M920.6 16.7h-313.3v313.1l158.4 229.1c16.9-10 36.5-15.7 57.5-15.7 62.6 0 113.5 50.9 113.5 113.5s-50.9 113.5-113.5 113.5c-59.9 0-109.1-46.6-113.2-105.4h-42.6c-1.2 17.5-6.4 33.9-14.7 48.3-0.1 0.1-0.1 0.3-0.2 0.4-0.1 0.2-0.2 0.4-0.3 0.5-19.7 33.6-56.2 56.2-97.9 56.2s-78.2-22.6-97.9-56.2c-0.1-0.2-0.2-0.3-0.3-0.5-0.1-0.1-0.1-0.3-0.2-0.4-8.3-14.4-13.5-30.8-14.7-48.3h-65.3c-0.3 0-0.6 0-0.9-0.1h-268.4c-3 0-5.7-1.7-7.1-4.3s-1.2-5.8 0.5-8.3l222.6-321.9v-313.5h-225c-4.4 0-8-3.6-8-8s3.6-8 8-8h823c4.4 0 8 3.6 8 8s-3.6 8-8 8zM910.2 697.7c0.4 0.2 0.7 0.5 1 0.7 6-12.7 9.4-26.8 9.4-41.8s-3.4-29.1-9.4-41.8c-0.3 0.3-0.7 0.5-1 0.7l-71.1 41 71.1 41.2zM903.3 712.1c-0.4-0.1-0.8-0.3-1.1-0.5l-71.1-41v82.1c0 0.4 0 0.9-0.1 1.3 29.9-2.6 56.1-18.5 72.3-41.9zM831.1 560.8v82.1l71.1-41c0.4-0.2 0.7-0.4 1.1-0.5-16.2-23.4-42.4-39.4-72.3-41.8 0.1 0.3 0.1 0.7 0.1 1.2zM599.9 347.3h-0.7l-154.4 223.4h304.3c1.1-0.9 2.2-1.9 3.3-2.7l-152.5-220.7zM774.7 572.1l40.4 58.4v-69.7c0-0.4 0-0.9 0.1-1.3-14.6 1.2-28.3 5.6-40.5 12.6zM815.2 753.9c-0.1-0.4-0.1-0.8-0.1-1.3v-82.1l-71.1 41c-0.4 0.2-0.7 0.4-1.1 0.5 16.2 23.5 42.4 39.4 72.3 41.9zM735 698.4c0.3-0.3 0.7-0.5 1-0.7l57.1-33h-67.2c1 12 4.2 23.4 9.1 33.7zM642.3 698.3c4.9-10.3 8-21.7 9-33.6h-67.2l58.2 33.6zM562.1 753.8c29.8-2.4 55.9-18.4 72.1-41.7l-72.1-41.6v83.3zM546.1 753.8v-83.3l-72.1 41.7c16.2 23.3 42.3 39.2 72.1 41.6zM466 698.3l58.2-33.6h-67.2c0.9 12 4.1 23.3 9 33.6zM709.9 648.7h98.3l-11.2-16.4-31.5-45.6h-331.8l-42.9 62h319.1zM121.9 648.7h249.6l42.9-62h-249.7l-42.8 62zM175.9 570.7h249.5l28.1-40.7 1.9-2.7-123.5-178.7c-0.4 0.1-0.8 0.1-1.3 0.1s-0.8 0-1.3-0.1l-153.4 222.1zM338.6 330.2l126.5 183 126.1-182.5v-314h-252.6v313.5z" />
<glyph unicode="&#xe90c;" d="M948.1 258c-13.8 0-20.7 9.8-25.7 17-5.1 7.3-7.7 10.2-12.7 10.2s-7.5-3-12.7-10.2c-5.1-7.2-12-17-25.7-17s-20.7 9.8-25.7 17c-5.1 7.3-7.7 10.2-12.7 10.2s-7.5-3-12.7-10.2c-5.1-7.2-12-17-25.7-17-13.8 0-20.7 9.8-25.7 17-5.1 7.3-7.7 10.2-12.7 10.2-4.4 0-8 3.6-8 8s3.6 8 8 8c13.8 0 20.7-9.8 25.7-17 5.1-7.3 7.7-10.2 12.7-10.2s7.5 3 12.7 10.2c5.1 7.2 12 17 25.7 17 13.8 0 20.7-9.8 25.7-17 5.1-7.3 7.7-10.2 12.7-10.2s7.5 3 12.7 10.2c5.1 7.2 12 17 25.7 17s20.7-9.8 25.7-17c5.1-7.3 7.7-10.2 12.7-10.2 4.4 0 8-3.6 8-8s-3.6-8-8-8zM948.1 308c-13.8 0-20.7 9.8-25.7 17-5.1 7.3-7.7 10.2-12.7 10.2s-7.5-3-12.7-10.2c-5.1-7.2-12-17-25.7-17s-20.7 9.8-25.7 17c-5.1 7.3-7.7 10.2-12.7 10.2s-7.5-3-12.7-10.2c-5.1-7.2-12-17-25.7-17-13.8 0-20.7 9.8-25.7 17-5.1 7.3-7.7 10.2-12.7 10.2-4.4 0-8 3.6-8 8s3.6 8 8 8c13.8 0 20.7-9.8 25.7-17 5.1-7.3 7.7-10.2 12.7-10.2s7.5 3 12.7 10.2c5.1 7.2 12 17 25.7 17 13.8 0 20.7-9.8 25.7-17 5.1-7.3 7.7-10.2 12.7-10.2s7.5 3 12.7 10.2c5.1 7.2 12 17 25.7 17s20.7-9.8 25.7-17c5.1-7.3 7.7-10.2 12.7-10.2 4.4 0 8-3.6 8-8s-3.6-8-8-8z" />
<glyph unicode="&#xe90d;" d="M307.1 857.7c0-17.673 14.327-32 32-32s32 14.327 32 32v0c0 17.673-14.327 32-32 32s-32-14.327-32-32v0z" />
<glyph unicode="&#xe90e;" d="M922.4 1.7h-824c-4.4 0-8 3.6-8 8s3.6 8 8 8h824c4.4 0 8-3.6 8-8s-3.6-8-8-8z" />
<glyph unicode="&#xe90f;" d="M486.6 689.8l22.8-2.1-37.3-678h-74.9z" />
<glyph unicode="&#xe910;" d="M496.5 662.1l6.5 57.4s-169.2 39.8-254.6 4.9c-66.6-27.2-91.1-89.4-91.4-145.8 0-8.1 60.3 161.6 339.5 83.5z" />
<glyph unicode="&#xe911;" d="M498.7 685l4.9 39.6s-88.2 111.7-187.5 102.6c-84.2-7.8-117.6-55.9-137.6-91.1-10.3-18.2 150.8 107.3 320.2-51.1z" />
<glyph unicode="&#xe912;" d="M498.8 662.2l-2.5 57.7s156.7 33.6 246.4-18.6c74-43.1 92.5-90 88.9-146.2-0.5-8.1-52.8 153.4-332.8 107.1z" />
<glyph unicode="&#xe913;" d="M498.3 685.2l-2.1 39.8s98 95.9 197.1 85.7c82.4-8.5 110.5-60.6 128-97.1 9-18.8-142.9 117.7-323-28.4z" />
<glyph unicode="&#xe914;" d="M641 81.7c0-26.51 21.49-48 48-48s48 21.49 48 48v0c0 26.51-21.49 48-48 48s-48-21.49-48-48v0z" />
<glyph unicode="&#xe915;" d="M765 9.7h-96v16c0 26.4 21.6 48 48 48s48-21.6 48-48v-16z" />
<glyph unicode="&#xe916;" d="M699 10.1h-128v32c0 35.2 28.8 64 64 64s64-28.8 64-64v-32z" />
<glyph unicode="&#xe917;" d="M744.5 74.4c0.3 2.4 0.5 4.8 0.5 7.3 0 30.9-25.1 56-56 56-19 0-35.8-9.5-45.9-24-2.6 0.3-5.3 0.5-8.1 0.5-39.7 0-72-32.3-72-72v-32c0-4.4 3.6-8 8-8h95.4c0.8-0.3 1.7-0.4 2.6-0.4h96c4.4 0 8 3.6 8 8v16c0 20.8-11.5 39-28.5 48.6zM689 121.7c22.1 0 40-17.9 40-40v-1.3c-3.9 0.8-7.9 1.3-12 1.3-6.9 0-13.6-1.3-19.7-3.6-8.3 14.3-21.4 25.5-37 31.4 7.3 7.5 17.5 12.2 28.7 12.2zM661 18.1h-82v24c0 30.9 25.1 56 56 56h0.5c5.6 0 11-0.9 16.1-2.5 13.5-4.2 24.8-13.3 31.8-25.2 2.8-4.8 4.9-10.1 6.2-15.6 0.9-4.1 1.5-8.3 1.5-12.6v-24h-30.1zM757 17.7h-50v24.4c0 1.3 0 2.6-0.1 3.8-0.3 6.1-1.4 11.9-3.1 17.5 4.1 1.5 8.6 2.3 13.2 2.3 2.8 0 5.6-0.3 8.3-0.9 5.4-1.1 10.3-3.3 14.7-6.4 10.3-7.2 17.1-19.2 17.1-32.7v-8z" />
<glyph unicode="&#xe918;" d="M316.8 819.2c-27.1-2.5-50.2-9.3-70-20.8 7.9-0.1 16.6 0.7 26.2 2.8 20.7 4.5 35-19.5 66.1-22 37-2.9 44.4 13.5 79.4-4.5 12-6.1 21.4-7.4 28.9-5.9-1.8 1.5-3.6 2.9-5.5 4.4-30.2 23.4-76.5 50.5-125.1 46zM562 765c-11.6-7.1-21.9-14.4-30.7-21 16.1-0.2 35.5 4.1 51.7 17.8 44 37.1 78 13.3 92 25.3 4.1 3.5 8.4 9.4 12.5 15.9-47.2 3.2-94.1-18.7-125.5-38z" />
<glyph unicode="&#xe919;" d="M822.2 634.9c-14.7 26.5-39.8 49.8-76.5 71.2-32.4 18.9-75.9 29-129.7 30.3 24.8 6.2 50.1 8.4 75.6 6.5 53.1-4 93.4-24.9 112.7-34.8 3.8-1.9 6.8-3.5 9.1-4.5 2.4-1.1 8.2-3.6 12.6 0.7 1.1 1 4.3 4.8 1.4 10.8-9.4 19.5-21 42-41.3 61.4-24.2 23.1-54.6 36.3-93 40.2-42.3 4.4-91-9.5-140.8-40.1-23.4-14.4-41.8-29.2-52.5-38.4-9.7 10.8-26.7 28.3-48.9 45.5-28.8 22.4-57.7 37.4-85.7 44.8 7.9 7.3 12.8 17.7 12.8 29.3 0 22.1-17.9 40-40 40s-40-17.9-40-40c0-9.6 3.4-18.4 9.1-25.4-27.7-3.4-52.1-11.6-73-24.3-3.4 2-7.5 3.3-12.6 3.3-13.8 0-20.7-9.8-25.7-17-5.1-7.3-7.7-10.2-12.7-10.2s-7.5 3-12.7 10.2c-5.1 7.2-12 17-25.7 17s-20.7-9.8-25.7-17c-5.1-7.3-7.7-10.2-12.7-10.2s-7.5 3-12.7 10.2c-5.1 7.2-12 17-25.7 17-4.4 0-8-3.6-8-8s3.6-8 8-8c5 0 7.5-3 12.7-10.2 5.1-7.2 12-17 25.7-17s20.7 9.8 25.7 17c5.1 7.3 7.7 10.2 12.7 10.2s7.5-3 12.7-10.2c5.1-7.2 12-17 25.7-17 3 0 5.6 0.5 7.9 1.3-8.3-10.7-15-21.4-20.6-31.4-0.6-1-1-2-1.2-2.9-3.3 0.4-5.5 3.4-9.5 9.8-4.6 7.3-10.9 17.4-23.8 17.4s-19.2-10.1-23.8-17.4c-4.3-6.9-6.5-9.9-10.2-9.9s-5.9 3-10.2 9.9c-4.6 7.3-10.9 17.4-23.8 17.4-4.4 0-8-3.6-8-8s3.6-8 8-8c3.7 0 5.9-3 10.2-9.9 4.6-7.3 10.9-17.4 23.8-17.4s19.2 10.1 23.8 17.4c4.3 6.9 6.5 9.9 10.2 9.9s5.9-3 10.2-9.9c4.6-7.3 10.9-17.4 23.8-17.4 7.5 0 12.7 3.3 16.7 7.6 1.8 0.7 3.9 1.6 6.3 2.7 20 8.6 61.7 26.5 114.9 26.8h1.4c26.8 0 53-4.5 78.5-13.5-62 4.9-110.2 0.5-143.4-13-32.7-13.3-57.7-35.4-74.5-65.5-14.1-25.3-21.7-55.6-21.9-87.6 0-3.8 2.4-7.1 6-8 0.8-0.2 1.6-0.3 2.4-0.3 4.6 0 7 4.1 8.8 7.3 18.1 31 43.9 55.2 76.7 71.7 28.3 14.3 61.2 22.7 98.1 24.9 40 2.4 84.9-2.5 133.7-14.5l-85.3-645.9c-0.3-2.3 0.4-4.6 1.9-6.3s3.7-2.7 6-2.7h74.9c4.2 0 7.8 3.3 8 7.6l35.7 644.4c95.7 13.6 173.8 3.7 232.5-29.5 48-27.2 67.5-61.6 73.9-72.9 2-3.5 4.4-7.7 9-7.7 0.6 0 1.3 0.1 2 0.2 3.5 0.8 6.1 3.9 6.3 7.6 2.2 32.4-3 58.6-16.3 82.4zM338.1 881.7c13.2 0 24-10.8 24-24s-10.8-24-24-24-24 10.8-24 24 10.7 24 24 24zM309.4 772.2h-1.5c-49.7-0.3-89.5-14.9-112.7-24.5 8.2 12.3 18.5 24.9 32.1 36 23.6 19.2 52.6 30.2 88.6 33.5 48.6 4.5 94.8-22.5 125-46 20.2-15.7 36.2-31.9 45.7-42.3 0.6-0.6 1.7-1.9 1.7-1.9v-25c-0.1 0.1-0.2 0.1-0.3 0.2-5.5 4.6-11 9-16.6 13.2-10.8 8.1-21.8 15.3-32.9 21.6-41 23.4-84.1 35.2-129.1 35.2zM234.6 661.5c-27.2-13.8-50-32.4-68.1-55.5 3.1 18.3 8.9 35.3 17.3 50.4 15 26.8 37.4 46.5 66.6 58.5 24.9 10.2 57.5 13.7 91 13.7 31.9 0 64.5-3.2 91.8-7 15.2-8.9 30.1-19.5 44.7-31.8 3.7-3.1 7.4-6.4 11-9.7l-0.3-9.9c-4.4 1.2-8.7 2.2-13 3.3-97.2 23.8-178.2 19.8-241-12zM463.5 18.7h-58.2l83.9 634.8c1.4-0.4 2.8-0.7 4.2-1.1 1.2-0.3 2.4-0.4 3.6-0.1h1.6l-35.1-633.6zM510 725.6s2.8 2.4 4.4 3.7c10.6 8.9 26.9 21.5 46.7 33.7 32.5 20 81.6 42.7 130.4 37.7 63.8-6.6 93-39.6 112.3-74.4-22.4 11.2-61.1 28.7-110.9 32.5-43.9 3.4-86.8-4.6-128.4-23.8-12.3-5.7-24.5-12.3-36.5-19.9-6.6-4.2-13.1-8.6-19.6-13.3-0.1-0.1-0.2-0.1-0.3-0.2l1.9 24zM755.1 639.1c-44.1 25-98.3 37.5-161.7 37.5-24.5 0-50.5-1.9-77.8-5.6l-10.2-1.5 0.4 10.3c3.4 2.7 6.9 5.4 10.3 7.9 17.2 12.6 34.6 23.1 52.3 31.5 51.9 3.5 121.1 1.2 169.3-26.9 34.2-19.9 57.3-41.2 70.6-65.2 7.9-14.2 12.5-29.5 14.1-46.9-12.3 16.8-33.1 39.6-67.3 58.9z" />
<glyph unicode="&#xe91a;" d="M532.1 522.5l15.9-1.3-26.2-511h-52.5z" />
<glyph unicode="&#xe91b;" d="M538.9 501.2l4.6 40.2s-118.5 27.8-178.4 3.4c-46.6-19-63.8-62.6-64.1-102 0-5.7 42.3 113.1 237.9 58.4z" />
<glyph unicode="&#xe91c;" d="M540.4 517.3l3.4 27.7s-61.8 78.2-131.4 71.8c-59-5.4-82.4-39.2-96.4-63.8-7.2-12.7 105.7 75.2 224.4-35.7z" />
<glyph unicode="&#xe91d;" d="M540.5 501.3l-1.7 40.4s109.8 23.6 172.7-13c51.9-30.2 64.8-63 62.3-102.4-0.4-5.6-37.1 107.5-233.3 75z" />
<glyph unicode="&#xe91e;" d="M540.1 517.4l-1.5 27.9s68.6 67.1 138.1 60c57.7-6 77.4-42.4 89.7-68 6.4-13.1-100.1 82.4-226.3-19.9z" />
<glyph unicode="&#xe91f;" d="M770 484.8c-10.5 19-28.4 35.6-54.5 50.8-21.1 12.3-47 18.2-72.3 20.5 52.7 6.8 93.5-14.2 111.1-23.3 2.7-1.4 4.8-2.5 6.5-3.2 1.8-0.8 7.2-3.2 11.5 1 2.1 2.1 3.6 5.9 1.5 10.4-6.6 13.9-15 29.8-29.5 43.6-17.1 16.3-39.5 26-66.6 28.8-30.2 3.1-64.8-6.7-100.1-28.4-15.3-9.4-27.6-19-35.3-25.6-7.1 7.7-18.5 19.2-33 30.4-33.2 25.8-66.9 38-97.4 35.2-67.6-6.2-92.2-49.4-102.7-67.8-2.5-4.3-1.2-8.2 0.7-10.4 4-4.4 9.5-2.4 11.4-1.8 1.7 0.6 3.9 1.6 6.7 2.8 18.4 7.9 61.2 26.3 113.9 15.2-28.6 0.8-57.7-1.5-79.7-10.5-23.4-9.6-41.4-25.3-53.4-46.9-10.1-18.1-15.5-39.7-15.7-62.5 0-3.8 2.4-7 5.9-8 0.8-0.2 1.6-0.3 2.4-0.3 4.5 0 6.8 4 8.2 6.3 12.5 21.3 30.2 37.9 52.8 49.3 40.8 20.7 94.2 23.2 158.7 7.6l-59.6-486.5c-0.3-2.3 0.4-4.6 1.9-6.3s3.7-2.7 6-2.7h52.5c4.3 0 7.8 3.3 8 7.6l24.9 485.6c65.6 9 119.2 2.1 159.5-20.6 33.1-18.7 46.5-42.3 50.9-50.1 1.4-2.5 3.7-6.6 8.4-6.6 0.6 0 1.3 0.1 2 0.2 3.5 0.8 6 3.8 6.3 7.5 1.3 22.8-2.5 41.6-11.9 58.7zM676 597.3c39.4-4.1 59.5-22.9 72.8-44.1-16.3 7.7-41 17.2-71.4 19.5-30.9 2.4-61.2-3.2-90.6-16.6-12-5.5-23.8-12.3-35.5-20.3-0.2-0.1-0.3-0.2-0.5-0.3l-0.1-0.1s0.7 7.7 1 10.9c2.4 2 5.3 4.5 8.7 7.1 23.7 18.6 69.9 48.6 115.6 43.9zM408.5 582.1h-1.1c-30.3-0.2-55.4-7.8-72.3-14.3 4.8 6.3 10.4 12.5 17.3 18.1 16.2 13.2 36 20.7 60.8 22.9 47.3 4.4 91.9-34.4 112.5-55.6 2-2.1 3.8-3.9 5.3-5.6 0.1-3.9 0.1-11.7 0.1-11.7-10.3 8.3-20.8 15.5-31.5 21.6-28.9 16.4-59.4 24.6-91.1 24.6zM355 504.4c-16.4-8.3-30.5-19-42.3-32.1 5.8 23.2 20.3 50.8 55.4 65.1 17.2 7 39.7 9.5 62.8 9.5 22 0 44.6-2.2 63.5-4.8 9.7-5.7 19.5-12.6 29.4-20.8 2.7-2.2 5.4-4.6 8.1-7l0.1-2.6v-0.2c-3.1 0.8-6.1 1.5-9.1 2.2-67.5 16-123.9 12.9-167.9-9.3zM514.2 18.2h-35.8l58.2 475.4h0.2c0.6-0.2 1.2-0.2 1.7-0.3l-24.3-475.1zM722 488.7c-31.3 17.7-69.6 26.5-114.5 26.5-16.5 0-33.8-1.2-52-3.6-2.4-0.3-4.9-0.7-7.4-1l0.3 3.1c2.5 2 5 3.9 7.5 5.7 11.8 8.6 23.4 15.5 34.7 20.9 35.9 2.4 83.7 0.7 116.8-18.5 23.6-13.8 39.5-28.4 48.6-44.8 4-7.2 6.8-14.8 8.4-23.1-9.1 10.8-22.6 23.6-42.4 34.8z" />
<glyph unicode="&#xe920;" d="M261.5 676.4c-13.8 0-20.7 9.8-25.7 17-5.1 7.3-7.7 10.2-12.7 10.2s-7.5-3-12.7-10.2c-5.1-7.2-12-17-25.7-17-13.8 0-20.7 9.8-25.7 17-5.1 7.3-7.7 10.2-12.7 10.2s-7.5-3-12.7-10.2c-5.1-7.2-12-17-25.7-17s-20.7 9.9-25.7 17c-5.1 7.3-7.7 10.2-12.7 10.2-4.4 0-8 3.6-8 8s3.6 8 8 8c13.8 0 20.7-9.8 25.7-17 5.1-7.3 7.7-10.2 12.7-10.2s7.5 3 12.7 10.2c5.1 7.2 12 17 25.7 17s20.7-9.8 25.7-17c5.1-7.3 7.7-10.2 12.7-10.2s7.5 3 12.7 10.2c5.1 7.2 12 17 25.7 17s20.7-9.8 25.7-17c5.1-7.3 7.7-10.2 12.7-10.2 4.4 0 8-3.6 8-8s-3.5-8-8-8zM261.5 726.4c-13.8 0-20.7 9.8-25.7 17-5.1 7.3-7.7 10.2-12.7 10.2s-7.5-3-12.7-10.2c-5.1-7.2-12-17-25.7-17-13.8 0-20.7 9.8-25.7 17-5.1 7.3-7.7 10.2-12.7 10.2s-7.5-3-12.7-10.2c-5.1-7.2-12-17-25.7-17s-20.7 9.9-25.7 17c-5.1 7.3-7.7 10.2-12.7 10.2-4.4 0-8 3.6-8 8s3.6 8 8 8c13.8 0 20.7-9.8 25.7-17 5.1-7.3 7.7-10.2 12.7-10.2s7.5 3 12.7 10.2c5.1 7.2 12 17 25.7 17s20.7-9.8 25.7-17c5.1-7.3 7.7-10.2 12.7-10.2s7.5 3 12.7 10.2c5.1 7.2 12 17 25.7 17s20.7-9.8 25.7-17c5.1-7.3 7.7-10.2 12.7-10.2 4.4 0 8-3.6 8-8s-3.5-8-8-8z" />
<glyph unicode="&#xe921;" d="M317.5 856c0-17.673 14.327-32 32-32s32 14.327 32 32v0c0 17.673-14.327 32-32 32s-32-14.327-32-32v0z" />
<glyph unicode="&#xe922;" d="M349.5 816c-22.1 0-40 17.9-40 40s17.9 40 40 40 40-17.9 40-40-17.9-40-40-40zM349.5 880c-13.2 0-24-10.8-24-24s10.8-24 24-24 24 10.8 24 24-10.7 24-24 24z" />
<glyph unicode="&#xe923;" d="M746.5 9h-280l-50 631h380z" />
<glyph unicode="&#xe924;" d="M773.6 165.5l22.9 280h-380l22.9-280z" />
<glyph unicode="&#xe925;" d="M804 639.5h-394.9c-6.9 0-12.6 5.6-12.6 12.6v8.8c0 14.7 11.9 26.6 26.6 26.6h366.7c14.7 0 26.6-11.9 26.6-26.6v-8.8c0.1-7-5.5-12.6-12.4-12.6z" />
<glyph unicode="&#xe926;" d="M766.5 687h-320v42.4c0 16.4 13.3 29.6 29.6 29.6h260.7c16.4 0 29.6-13.3 29.6-29.6v-42.4z" />
<glyph unicode="&#xe927;" d="M948.5 272.4c-5 0-7.5 3-12.7 10.2-5.1 7.2-12 17-25.7 17s-20.7-9.8-25.7-17c-5.1-7.3-7.7-10.2-12.7-10.2s-7.5 3-12.7 10.2c-5.1 7.2-12 17-25.7 17s-20.7-9.8-25.7-17c-5.1-7.3-7.7-10.2-12.7-10.2-1.7 0-3.1 0.3-4.4 1.1l2.7 33c0.6 0 1.1-0.1 1.7-0.1 13.8 0 20.7 9.8 25.7 17 5.1 7.3 7.7 10.2 12.7 10.2s7.5-3 12.7-10.2c5.1-7.2 12-17 25.7-17 13.8 0 20.7 9.8 25.7 17 5.1 7.3 7.7 10.2 12.7 10.2s7.5-3 12.7-10.2c5.1-7.2 12-17 25.7-17 4.4 0 8 3.6 8 8s-3.6 8-8 8c-5 0-7.5 3-12.7 10.2-5.1 7.2-12 17-25.7 17s-20.7-9.8-25.7-17c-5.1-7.3-7.7-10.2-12.7-10.2s-7.5 3-12.7 10.2c-5.1 7.2-12 17-25.7 17s-20.7-9.8-25.7-17c-5.1-7.3-7.7-10.2-12.7-10.2h-0.4l10 121.7c0.2 2.2-0.6 4.4-2.1 6.1s-3.6 2.6-5.9 2.6h-6.8l14.2 179c11.3 0 20.6 9.2 20.6 20.6v8.8c0 19.1-15.5 34.6-34.6 34.6h-15.4v34.4c0 20.7-16.9 37.6-37.6 37.6h1.6v12c0 2.2-1.8 4-4 4h-24c-2.2 0-4-1.8-4-4v-12h-230.3c-20.7 0-37.6-16.9-37.6-37.6v-34.4h-15.4c-19.1 0-34.6-15.5-34.6-34.6v-8.8c0-11.3 9.2-20.6 20.6-20.6l14.2-179h-6.7c-2.2 0-4.4-0.9-5.9-2.6s-2.3-3.8-2.1-6.1l22.9-280c0.3-4.2 3.8-7.3 8-7.3h7.3l11-140.8h-361.4c-4.4 0-8-3.6-8-8s3.6-8 8-8h824c4.4 0 8 3.6 8 8s-3.6 8-8 8h-165.3l11.2 140.8h7.3c4.2 0 7.6 3.2 8 7.3l7.6 92.9c1.8-0.4 3.7-0.6 5.7-0.6 13.8 0 20.7 9.8 25.7 17 5.1 7.3 7.7 10.2 12.7 10.2s7.5-3 12.7-10.2c5.1-7.2 12-17 25.7-17 13.8 0 20.7 9.8 25.7 17 5.1 7.3 7.7 10.2 12.7 10.2s7.5-3 12.7-10.2c5.1-7.2 12-17 25.7-17 4.4 0 8 3.6 8 8s-3.6 8-8.1 8zM454.5 730.1c0 11.9 9.7 21.6 21.6 21.6h260.7c11.9 0 21.6-9.7 21.6-21.6v-34.4h-304v34.4zM462.8 156.8h287.5l-11.1-140.5h-265.3l-11.1 140.5zM766.3 172.8h-319.5l-21.6 264h362.6l-21.5-264zM773.7 452.8h-334.4l-14.1 178.5h362.7l-14.2-178.5zM409.1 647.8c-2.5 0-4.6 2-4.6 4.6v8.8c0 10.3 8.4 18.6 18.6 18.6h366.8c10.3 0 18.6-8.4 18.6-18.6v-8.8c0-2.5-2-4.6-4.6-4.6h-394.8z" />
<glyph unicode="&#xe928;" d="M368.5 392c-106 0-192-86-192-192s86-192 192-192 192 86 192 192-85.9 192-192 192zM368.5 136c-35.3 0-64 28.7-64 64s28.7 64 64 64 64-28.7 64-64-28.6-64-64-64z" />
<glyph unicode="&#xe929;" d="M368.5 392c-106 0-192-86-192-192 0-14.2 1.5-27.9 4.5-41.2 3.7-14.4 27.9-14.1 39.1-13 19 1.8 43.4-16.8 38.4-41.8s35.3-56.9 65.6-28c21.5 20.5 53.5 16.5 76 6.5 39.3-17.4 69 2 81.5 15.5 15.5 16.7 8.7 43 17.5 61 10.8 22 35.5 1.1 48.5 21 4.9 7.5 9.2 19.1 12.7 30.6-5.6 101.1-89.3 181.4-191.8 181.4zM368.5 136c-35.3 0-64 28.7-64 64s28.7 64 64 64 64-28.7 64-64-28.6-64-64-64z" />
<glyph unicode="&#xe92a;" d="M568.2 211.1v0.5c-0.1 1.5-0.2 2.9-0.3 4.4 0 0.3-0.1 0.6-0.1 0.9-0.1 1.3-0.2 2.7-0.4 4-0.1 0.7-0.2 1.5-0.3 2.2-0.1 0.9-0.2 1.7-0.3 2.6-10.8 85.3-75.3 153.3-157.9 170.2h-0.2l-4.5 0.9c-0.2 0-0.3 0.1-0.5 0.1-1.4 0.2-2.8 0.5-4.2 0.7-0.3 0-0.6 0.1-0.8 0.1-1.3 0.2-2.6 0.4-3.9 0.5-0.4 0-0.7 0.1-1.1 0.1-1.2 0.2-2.5 0.3-3.7 0.4-0.4 0-0.9 0.1-1.3 0.1-1.2 0.1-2.3 0.2-3.5 0.3-0.5 0-1 0.1-1.5 0.1-1.1 0.1-2.3 0.2-3.4 0.2-0.5 0-1.1 0.1-1.6 0.1-1.2 0.1-2.4 0.1-3.6 0.1-0.5 0-1 0-1.5 0.1-1.7 0-3.4 0.1-5.1 0.1-110.3 0-200-89.7-200-200 0-1.8 0-3.6 0.1-5.3v-1c0-1.4 0.1-2.9 0.2-4.3 0-0.3 0-0.7 0.1-1 0.1-1.4 0.2-2.9 0.3-4.3 0-0.4 0.1-0.7 0.1-1.1 0.1-1.4 0.3-2.8 0.4-4.2 0-0.4 0.1-0.8 0.1-1.2 0.2-1.3 0.3-2.7 0.5-4 0.1-0.5 0.1-1 0.2-1.4 0.2-1.2 0.4-2.5 0.5-3.7l0.3-1.8c0.2-1.1 0.4-2.1 0.6-3.2 0.1-0.7 0.3-1.5 0.4-2.2 0.2-0.9 0.4-1.8 0.5-2.6 0.1-0.5 0.2-0.9 0.3-1.4 0-0.1 0-0.2 0.1-0.3v-0.2c20-89.5 100-156.6 195.3-156.6 110.3 0 200 89.7 200 200 0 3.7-0.1 7.4-0.3 11.1zM368.5 384c1.6 0 3.1 0 4.7-0.1h1.4c1.1 0 2.2-0.1 3.3-0.1 0.5 0 1-0.1 1.5-0.1 1-0.1 2.1-0.1 3.1-0.2 0.5 0 1-0.1 1.4-0.1 1.1-0.1 2.1-0.2 3.2-0.3 0.4 0 0.9-0.1 1.3-0.1 1.1-0.1 2.2-0.2 3.3-0.4 0.4 0 0.7-0.1 1.1-0.1 1.2-0.2 2.3-0.3 3.5-0.5 0.3 0 0.6-0.1 0.9-0.1 1.2-0.2 2.5-0.4 3.7-0.6 0.2 0 0.4-0.1 0.6-0.1 1.3-0.2 2.7-0.5 4-0.8 0.1 0 0.2 0 0.3-0.1 73.2-15.1 130.6-73.8 143.9-147.6 0-0.1 0-0.3 0.1-0.4 0.2-1.3 0.4-2.5 0.6-3.8 0.1-0.5 0.1-0.9 0.2-1.4 0.1-0.9 0.3-1.9 0.4-2.9 0.1-0.7 0.2-1.4 0.3-2.2 0.1-0.7 0.2-1.4 0.2-2.1l0.3-2.7c0.1-0.5 0.1-1.1 0.1-1.6 0.1-1 0.2-2.1 0.2-3.1v-0.7c-3.8-12.2-7.7-21.6-11.3-27.2-3.8-5.8-8.7-6.1-17.7-6.1-9.9 0-23.6 0-31.3-15.8-4.3-8.7-5.3-18.5-6.4-28-1.3-11.9-2.5-23.2-9.8-31.1-5-5.4-32.1-31.5-72.4-13.6-25.2 11.2-60.7 15-84.8-8-15.1-14.4-30.4-8.5-36.2-5.2-10.9 6-17.7 17.1-16 25.8 2.6 13-1 25.7-10.1 35.8-8.8 9.7-21.6 15.6-33.6 15.6-1.1 0-2.2 0-3.2-0.1-13.4-1.2-28.5 0.4-30.5 6.8l-0.3 1.5c-0.2 0.7-0.3 1.5-0.4 2.2s-0.3 1.5-0.4 2.2c-0.2 0.9-0.3 1.8-0.5 2.8l-0.3 1.8c-0.2 1.1-0.3 2.2-0.5 3.3-0.1 0.5-0.1 0.9-0.2 1.4-0.2 1.2-0.3 2.4-0.4 3.6 0 0.4-0.1 0.8-0.1 1.1-0.1 1.3-0.3 2.6-0.4 3.9 0 0.3-0.1 0.7-0.1 1-0.1 1.3-0.2 2.6-0.3 4 0 0.3 0 0.6-0.1 0.9-0.1 1.3-0.1 2.6-0.2 4v0.9c0 1.6-0.1 3.3-0.1 4.9 0 101.3 82.6 183.8 184 183.8zM368.5 16c-80.1 0-148.3 51.4-173.6 122.9 7.2-1.7 15.8-2.1 25.8-1.1 7.9 0.7 17.3-3.4 23.5-10.3 4-4.4 8.4-11.9 6.3-22-3.1-15.6 7-33.6 24-43 7.4-4.1 15.1-6.1 22.6-6.1 11.5 0 22.8 4.7 32.4 13.8 18.4 17.5 46.8 14.1 67.2 5 38.9-17.3 72.3-2.4 90.6 17.4 10.8 11.7 12.5 26.8 14 40.2 0.9 8.5 1.8 16.5 4.8 22.7 3.1 6.2 6.9 6.8 16.9 6.8 8.1 0 18.7 0 27 8.3-13.9-87.5-90-154.6-181.5-154.6z" />
<glyph unicode="&#xe92b;" d="M368.5 128c39.7 0 72 32.3 72 72s-32.3 72-72 72-72-32.3-72-72 32.3-72 72-72zM368.5 256c30.9 0 56-25.1 56-56s-25.1-56-56-56-56 25.1-56 56 25.2 56 56 56z" />
<glyph unicode="&#xe92c;" d="M291.3 297.5l7.8 4.8z" />
<glyph unicode="&#xe92d;" d="M291.3 289.5c-2.7 0-5.3 1.3-6.8 3.8-2.3 3.7-1.2 8.7 2.5 11l7.7 4.8c3.8 2.3 8.7 1.2 11-2.5s1.2-8.7-2.5-11l-7.7-4.8c-1.3-0.9-2.7-1.3-4.2-1.3z" />
<glyph unicode="&#xe92e;" d="M233 286.7l-1.3-9.5z" />
<glyph unicode="&#xe92f;" d="M231.7 269.2c-0.4 0-0.7 0-1.1 0.1-4.4 0.6-7.4 4.7-6.8 9l1.3 9.5c0.6 4.4 4.7 7.4 9 6.8 4.4-0.6 7.4-4.7 6.8-9l-1.3-9.5c-0.6-4-4-6.9-7.9-6.9z" />
<glyph unicode="&#xe930;" d="M211.1 227.4l1.7-8.3z" />
<glyph unicode="&#xe931;" d="M212.8 211.1c-3.7 0-7 2.6-7.8 6.4l-1.7 8.3c-0.9 4.3 1.9 8.6 6.2 9.4 4.3 0.9 8.6-1.9 9.4-6.2l1.7-8.3c0.9-4.3-1.9-8.6-6.2-9.4-0.5-0.2-1-0.2-1.6-0.2z" />
<glyph unicode="&#xe932;" d="M252 181.8l5.2-5.7z" />
<glyph unicode="&#xe933;" d="M257.2 168.1c-2.2 0-4.3 0.9-5.9 2.6l-5.3 5.8c-3 3.3-2.8 8.3 0.5 11.3s8.3 2.8 11.3-0.5l5.3-5.8c3-3.3 2.8-8.3-0.5-11.3-1.5-1.5-3.4-2.1-5.4-2.1z" />
<glyph unicode="&#xe934;" d="M291.3 105.9l-4.9-8.1z" />
<glyph unicode="&#xe935;" d="M286.4 89.8c-1.4 0-2.9 0.4-4.2 1.2-3.8 2.3-4.9 7.2-2.6 11l5 8.1c2.3 3.8 7.2 4.9 11 2.6s4.9-7.2 2.6-11l-5-8.1c-1.5-2.4-4.2-3.8-6.8-3.8z" />
<glyph unicode="&#xe936;" d="M355.3 349.2h7.6z" />
<glyph unicode="&#xe937;" d="M362.9 341.2h-7.5c-4.4 0-8 3.6-8 8s3.6 8 8 8h7.5c4.4 0 8-3.6 8-8s-3.6-8-8-8z" />
<glyph unicode="&#xe938;" d="M430.8 327.7l8.3-4.1z" />
<glyph unicode="&#xe939;" d="M439.1 315.6c-1.2 0-2.4 0.3-3.5 0.8l-8.3 4c-4 1.9-5.6 6.7-3.7 10.7s6.7 5.6 10.7 3.7l8.3-4c4-1.9 5.6-6.7 3.7-10.7-1.4-2.8-4.2-4.5-7.2-4.5z" />
<glyph unicode="&#xe93a;" d="M411.8 277.2l6-3.5z" />
<glyph unicode="&#xe93b;" d="M417.8 265.7c-1.4 0-2.8 0.4-4 1.1l-6 3.5c-3.8 2.2-5.1 7.1-2.9 10.9s7.1 5.1 10.9 2.9l6-3.5c3.8-2.2 5.1-7.1 2.9-10.9-1.5-2.6-4.2-4-6.9-4z" />
<glyph unicode="&#xe93c;" d="M489 250.2l9.7-6.5z" />
<glyph unicode="&#xe93d;" d="M498.7 235.7c-1.5 0-3.1 0.4-4.4 1.4l-9.7 6.5c-3.7 2.5-4.7 7.4-2.2 11.1s7.4 4.7 11.1 2.2l9.7-6.5c3.7-2.5 4.7-7.4 2.2-11.1-1.6-2.3-4.1-3.6-6.7-3.6z" />
<glyph unicode="&#xe93e;" d="M476.9 184.1l-4.9-10.3z" />
<glyph unicode="&#xe93f;" d="M472 165.8c-1.1 0-2.3 0.2-3.4 0.8-4 1.9-5.7 6.6-3.8 10.6l4.8 10.3c1.9 4 6.6 5.7 10.6 3.8s5.7-6.6 3.8-10.6l-4.8-10.3c-1.3-2.9-4.2-4.6-7.2-4.6z" />
<glyph unicode="&#xe940;" d="M408.4 113.2h9.4z" />
<glyph unicode="&#xe941;" d="M417.8 105.2h-9.4c-4.4 0-8 3.6-8 8s3.6 8 8 8h9.4c4.4 0 8-3.6 8-8s-3.6-8-8-8z" />
<glyph unicode="&#xe942;" d="M423.2 679.8c-10.3 0-18.6-8.4-18.6-18.6v-8.8c0-2.5 2-4.6 4.6-4.6h52.5c0.5 4.4 1.7 9.5 4.3 16 2.8 7 7.4 12 13.2 16h-56zM454.5 730.1v-34.4h56.8c10 4.8 20.2 10.9 29.2 20.6 10.9 11.7 12.9 24.5 11.4 35.4h-75.8c-11.9 0.1-21.6-9.7-21.6-21.6zM459.2 597.7c3.8 16.2 3.5 25.8 2.9 33.6h-36.9l12.6-158.5c24.7 37.1 14.9 96.7 21.4 124.9z" />
<glyph unicode="&#xe943;" d="M242 679.7c-12.9 0-19.2 10.1-23.8 17.4-4.3 6.9-6.5 9.9-10.2 9.9s-5.9-3-10.2-9.9c-4.6-7.3-10.9-17.4-23.8-17.4s-19.2 10.1-23.8 17.4c-4.3 6.9-6.5 9.9-10.2 9.9s-5.9-3-10.2-9.9c-4.6-7.3-10.9-17.4-23.8-17.4s-19.2 10.1-23.8 17.4c-4.3 6.9-6.5 9.9-10.2 9.9-4.4 0-8 3.6-8 8s3.6 8 8 8c12.9 0 19.2-10.1 23.8-17.4 4.3-6.9 6.5-9.9 10.2-9.9s5.9 3 10.2 9.9c4.5 7.4 10.8 17.4 23.8 17.4s19.2-10.1 23.8-17.4c4.3-6.9 6.5-9.9 10.2-9.9s5.9 3 10.2 9.9c4.6 7.4 10.8 17.4 23.8 17.4s19.2-10.1 23.8-17.4c4.3-6.9 6.5-9.9 10.2-9.9 4.4 0 8-3.6 8-8s-3.6-8-8-8zM263.9 729.7c-13.8 0-20.7 9.8-25.7 17-5.1 7.3-7.7 10.2-12.7 10.2s-7.5-3-12.7-10.2c-5.1-7.2-12-17-25.7-17-13.8 0-20.7 9.8-25.7 17-5.1 7.3-7.7 10.2-12.7 10.2s-7.5-3-12.7-10.2c-5.1-7.2-12-17-25.7-17s-20.7 9.8-25.7 17c-5.1 7.3-7.7 10.2-12.7 10.2-4.4 0-8 3.6-8 8s3.6 8 8 8c13.8 0 20.7-9.8 25.7-17 5.1-7.3 7.7-10.2 12.7-10.2s7.5 3 12.7 10.2c5.1 7.2 12 17 25.7 17s20.7-9.8 25.7-17c5.1-7.3 7.7-10.2 12.7-10.2s7.5 3 12.7 10.2c5.1 7.2 12 17 25.7 17s20.7-9.8 25.7-17c5.1-7.3 7.7-10.2 12.7-10.2 4.4 0 8-3.6 8-8s-3.6-8-8-8z" />
<glyph unicode="&#xe944;" d="M320 855.3c0-17.673 14.327-32 32-32s32 14.327 32 32v0c0 17.673-14.327 32-32 32s-32-14.327-32-32v0z" />
<glyph unicode="&#xe945;" d="M352 815.3c-22.1 0-40 17.9-40 40s17.9 40 40 40 40-17.9 40-40-17.9-40-40-40zM352 879.3c-13.2 0-24-10.8-24-24s10.8-24 24-24 24 10.8 24 24-10.8 24-24 24z" />
<glyph unicode="&#xe946;" d="M368.9 725.3h320v-204h-320z" />
<glyph unicode="&#xe947;" d="M547.4 672.8l-137.2-151.5h246.1z" />
<glyph unicode="&#xe948;" d="M623.9 475.3h-255l150.4 166z" />
<glyph unicode="&#xe949;" d="M590.1 612.9l-40.2 9.9-52-5.2 49.5 54.6z" />
<glyph unicode="&#xe94a;" d="M477.8 595.5l22.8-16.7 18.6 14 41.3-16.9-41.2 65.3z" />
<glyph unicode="&#xe94b;" d="M439.9 648.3c-13.2 0-24 10.8-24 24s10.8 24 24 24 24-10.8 24-24-10.7-24-24-24zM439.9 680.3c-4.4 0-8-3.6-8-8s3.6-8 8-8 8 3.6 8 8-3.6 8-8 8z" />
<glyph unicode="&#xe94c;" d="M423.9 672.3c0-8.837 7.163-16 16-16s16 7.163 16 16v0c0 8.837-7.163 16-16 16s-16-7.163-16-16v0z" />
<glyph unicode="&#xe94d;" d="M800.9 9.3h-576c-17.6 0-32 14.4-32 32v448c0 17.6 14.4 32 32 32h576c17.6 0 32-14.4 32-32v-448c0-17.6-14.4-32-32-32z" />
<glyph unicode="&#xe94e;" d="M800.9 9.3h-576c-17.6 0-32 14.4-32 32v96h640v-96c0-17.6-14.4-32-32-32z" />
<glyph unicode="&#xe94f;" d="M319.9 264.3c0-106.591 86.409-193 193-193s193 86.409 193 193v0c0 106.591-86.409 193-193 193s-193-86.409-193-193v0z" />
<glyph unicode="&#xe950;" d="M368.9 264.3c0-79.529 64.471-144 144-144s144 64.471 144 144v0c0 79.529-64.471 144-144 144s-144-64.471-144-144v0z" />
<glyph unicode="&#xe951;" d="M311.9 420.3h-58c-8.8 0-16 7.2-16 16s7.2 16 16 16h58c8.8 0 16-7.2 16-16s-7.2-16-16-16z" />
<glyph unicode="&#xe952;" d="M468.3 264.5c0-26.51 21.49-48 48-48s48 21.49 48 48v0c0 26.51-21.49 48-48 48s-48-21.49-48-48v0z" />
<glyph unicode="&#xe953;" d="M512.9 112.3c83.8 0 152 68.2 152 152s-68.2 152-152 152-152-68.2-152-152 68.2-152 152-152zM512.9 400.3c75 0 136-61 136-136s-61-136-136-136-136 61-136 136 61 136 136 136zM311.9 460.3h-58c-13.2 0-24-10.8-24-24s10.8-24 24-24h58c13.2 0 24 10.8 24 24 0 13.3-10.7 24-24 24zM311.9 428.3h-58c-4.4 0-8 3.6-8 8s3.6 8 8 8h58c4.4 0 8-3.6 8-8s-3.6-8-8-8z" />
<glyph unicode="&#xe954;" d="M516.3 208.5c30.9 0 56 25.1 56 56s-25.1 56-56 56-56-25.1-56-56 25.1-56 56-56zM516.3 304.5c22.1 0 40-17.9 40-40s-17.9-40-40-40-40 17.9-40 40 17.9 40 40 40z" />
<glyph unicode="&#xe955;" d="M951 273.7c-5 0-7.5 3-12.7 10.2-5.1 7.2-12 17-25.7 17s-20.7-9.8-25.7-17c-5.1-7.3-7.7-10.2-12.7-10.2s-7.5 3-12.7 10.2c-4.4 6.2-10.2 14.5-20.6 16.5v33c2.3-1.6 4.5-4.4 7.5-8.7 5.1-7.2 12-17 25.7-17s20.7 9.8 25.7 17c5.1 7.3 7.7 10.2 12.7 10.2s7.5-3 12.7-10.2c5.1-7.2 12-17 25.7-17 4.4 0 8 3.6 8 8s-3.6 8-8 8c-5 0-7.5 3-12.7 10.2-5.1 7.2-12 17-25.7 17s-20.7-9.8-25.7-17c-5.1-7.3-7.7-10.2-12.7-10.2s-7.5 3-12.7 10.2c-4.4 6.2-10.2 14.5-20.6 16.5v138.9c0 22.1-17.9 40-40 40h-104v196c0 4.4-3.6 8-8 8h-320c-4.4 0-8-3.6-8-8v-196h-136c-22.1 0-40-17.9-40-40v-448c0-9 3-17.3 8-24h-91.6c-4.4 0-8-3.6-8-8s3.6-8 8-8h824c4.4 0 8 3.6 8 8s-3.6 8-8 8h-92.4c5 6.7 8 15 8 24v242.2c2.3-1.6 4.5-4.4 7.5-8.7 5.1-7.2 12-17 25.7-17s20.7 9.8 25.7 17c5.1 7.3 7.7 10.2 12.7 10.2s7.5-3 12.7-10.2c5.1-7.2 12-17 25.7-17 4.4 0 8 3.6 8 8s-3.4 7.9-7.8 7.9zM376.9 717.3h304v-188h-20.6l-106.4 148.2c-1.4 2-3.6 3.2-6 3.3s-4.8-0.8-6.4-2.6l-134.9-148.9h-29.7v188zM539.3 594.6l1.2-1.8-18.2 7.4c-2.6 1.1-5.6 0.7-7.8-1l-13.8-10.4-10.8 7.9 12 13.3 16.4 18.1 9.8-15.5 11.2-18zM529.3 640.4l17.4 19.2 24.2-33.6-19.1 4.7c-0.6 0.2-1.3 0.2-1.9 0.2h-0.8l-12.9-1.3-6.9 10.8zM495.9 572.4c2.8-2.1 6.7-2.1 9.5 0.1l14.9 11.3 34.7-14.2 25.3-40.2h-151.7l50.2 55.5 17.1-12.5zM567.4 580c0 0.1-0.1 0.2-0.1 0.2l-14.7 23.2-6.9 11 3.6 0.4 36.4-9 54.9-76.4h-41.3l-31.9 50.6zM824.9 41.3c0-13.2-10.7-24-24-24h-576c-13.2 0-24 10.8-24 24v88h163.2c36.8-40.5 89.9-66 148.8-66s112 25.5 148.8 66h163.2v-88zM327.9 264.3c0 102 83 185 185 185s185-83 185-185-83-185-185-185-185 83-185 185zM824.9 145.3h-150.1c24.6 33.3 39.1 74.5 39.1 119 0 110.8-90.2 201-201 201s-201-90.2-201-201c0-44.5 14.5-85.7 39.1-119h-150.1v344c0 13.2 10.8 24 24 24h576c13.2 0 24-10.8 24-24v-344z" />
<glyph unicode="&#xe956;" d="M200.9 394.9c5.8 1.4 10.9 3.1 15 5.4 11.2 6.3 16.7 13.3 19.8 20.4-3.6 4.2-5.8 9.7-5.8 15.6 0 12.1 9.1 22.2 20.8 23.8 8.4 7.9 24.1 14.3 55.2 18 58.1 6.9 69.4 24.8 70.8 35.3h-151.8c-13.2 0-24-10.8-24-24v-94.5z" />
<glyph unicode="&#xe957;" d="M264.3 677.4c-13.8 0-20.7 9.8-25.7 17-5.1 7.3-7.7 10.2-12.7 10.2s-7.5-3-12.7-10.2c-5.1-7.2-12-17-25.7-17-13.8 0-20.7 9.8-25.7 17-5.1 7.3-7.7 10.2-12.7 10.2s-7.5-3-12.7-10.2c-5.1-7.2-12-17-25.7-17s-20.7 9.9-25.7 17c-5.1 7.3-7.7 10.2-12.7 10.2-4.4 0-8 3.6-8 8s3.6 8 8 8c13.8 0 20.7-9.8 25.7-17 5.1-7.3 7.7-10.2 12.7-10.2s7.5 3 12.7 10.2c5.1 7.2 12 17 25.7 17s20.7-9.8 25.7-17c5.1-7.3 7.7-10.2 12.7-10.2s7.5 3 12.7 10.2c5.1 7.2 12 17 25.7 17s20.7-9.8 25.7-17c5.1-7.3 7.7-10.2 12.7-10.2 4.4 0 8-3.6 8-8s-3.6-8-8-8zM264.3 727.4c-13.8 0-20.7 9.8-25.7 17-5.1 7.3-7.7 10.2-12.7 10.2s-7.5-3-12.7-10.2c-5.1-7.2-12-17-25.7-17-13.8 0-20.7 9.8-25.7 17-5.1 7.3-7.7 10.2-12.7 10.2s-7.5-3-12.7-10.2c-5.1-7.2-12-17-25.7-17s-20.7 9.9-25.7 17c-5.1 7.3-7.7 10.2-12.7 10.2-4.4 0-8 3.6-8 8s3.6 8 8 8c13.8 0 20.7-9.8 25.7-17 5.1-7.3 7.7-10.2 12.7-10.2s7.5 3 12.7 10.2c5.1 7.2 12 17 25.7 17s20.7-9.8 25.7-17c5.1-7.3 7.7-10.2 12.7-10.2s7.5 3 12.7 10.2c5.1 7.2 12 17 25.7 17s20.7-9.8 25.7-17c5.1-7.3 7.7-10.2 12.7-10.2 4.4 0 8-3.6 8-8s-3.6-8-8-8z" />
<glyph unicode="&#xe958;" d="M321.3 857c0-17.673 14.327-32 32-32s32 14.327 32 32v0c0 17.673-14.327 32-32 32s-32-14.327-32-32v0z" />
<glyph unicode="&#xe959;" d="M353.3 817c-22.1 0-40 17.9-40 40s17.9 40 40 40 40-17.9 40-40-17.9-40-40-40zM353.3 881c-13.2 0-24-10.8-24-24s10.8-24 24-24 24 10.8 24 24-10.8 24-24 24z" />
<glyph unicode="&#xe95a;" d="M393.3 599.7h-80v181.1c0 7.7 6.2 13.9 13.9 13.9h52.1c7.7 0 13.9-6.2 13.9-13.9v-181.1z" />
<glyph unicode="&#xe95b;" d="M455.3 9.3h-204c-18.1 0-33 14.8-33 33v432c0 74.2 60.7 135 135 135 74.2 0 135-60.7 135-135v-432c0-18.2-14.8-33-33-33z" />
<glyph unicode="&#xe95c;" d="M272.3 443.3h162v-300h-162z" />
<glyph unicode="&#xe95d;" d="M434.3 135.3h-162c-4.4 0-8 3.6-8 8v300c0 4.4 3.6 8 8 8h162c4.4 0 8-3.6 8-8v-300c0-4.5-3.6-8-8-8zM280.3 151.3h146v284h-146v-284z" />
<glyph unicode="&#xe95e;" d="M397.3 723.2h-88c-3.3 0-6 2.7-6 6v20c0 3.3 2.7 6 6 6h88c3.3 0 6-2.7 6-6v-20c0-3.3-2.7-6-6-6z" />
<glyph unicode="&#xe95f;" d="M576.7 319.5c-66.2 0-126.3 54-119.9 120 1.3 12.9 10 51 10 51h219.8s8.1-38.1 9.3-51c6-66-53-120-119.2-120z" />
<glyph unicode="&#xe960;" d="M696.1 439.2h-239.3v-0.3c-6.4-66 53.7-120 120-120s125.3 54 119.3 120v0.3z" />
<glyph unicode="&#xe961;" d="M576.8 327.5c32.1 0 64.1 14 85.5 37.5 0.4 0.4 0.7 0.9 1.1 1.3-19.7-17.5-26.6-15.3-40.3-19.8-26.7-8.8-34.7 7.5-48.7 10-14.8 2.6-33-16.2-63-0.5-12 6.3-26.2 18.3-33.5 25.9 3.4-5.7 7.4-11.1 12.1-16.2 21.8-23.9 54.2-38.2 86.8-38.2z" />
<glyph unicode="&#xe962;" d="M746.7 319.5c-66.2 0-126.3 54-119.9 120 1.3 12.9 10 51 10 51h219.8s8.1-38.1 9.3-51c6-66-53-120-119.2-120z" />
<glyph unicode="&#xe963;" d="M865.9 440h-239v-0.3c-6.5-65.8 53.6-119.7 119.8-119.7s125.2 53.9 119.2 119.7v0.3z" />
<glyph unicode="&#xe964;" d="M746.7 327.5c32.1 0 64 14 85.5 37.5 0.4 0.4 0.7 0.9 1.1 1.3-19.7-17.5-26.6-15.3-40.3-19.8-26.6-8.7-34.6 7.5-48.6 10-14.8 2.6-33-16.2-62.9-0.5-12 6.3-26.1 18.3-33.5 25.9 3.4-5.7 7.4-11.1 12.1-16.2 21.6-23.9 54-38.2 86.6-38.2zM321.3 715.2v-101.6c10.3 2.4 21 3.6 32 3.6 2.4 0 4.9-0.1 7.3-0.2-12 12.9-26.8 25.3-27.6 51.3-0.3 10.4-0.7 29.6 3.1 46.9h-14.8zM311.3 747.2v-16h29.9c3.1 6.7 7.2 12.3 12.8 16h-42.7zM327.2 786.7c-3.3 0-5.9-2.7-5.9-5.9v-17.6h50.5c4.4 6.9 7.5 15.1 9.7 23.1-0.7 0.3-1.4 0.4-2.1 0.4h-52.2z" />
<glyph unicode="&#xe965;" d="M951.3 243.3c-5 0-7.5 3-12.7 10.2-5.1 7.2-12 17-25.7 17s-20.7-9.8-25.7-17c-5.1-7.3-7.7-10.2-12.7-10.2s-7.5 3-12.7 10.2c-5.1 7.2-12 17-25.7 17s-20.7-9.8-25.7-17c-5.1-7.3-7.7-10.2-12.7-10.2s-7.5 3-12.7 10.2c-5.1 7.2-12 17-25.7 17-1.5 0-2.8-0.4-4-1.1v36.2c1.2-0.7 2.5-1.1 4-1.1 5 0 7.5-3 12.7-10.2 5.1-7.2 12-17 25.7-17s20.7 9.8 25.7 17c5.1 7.3 7.7 10.2 12.7 10.2s7.5-3 12.7-10.2c5.1-7.2 12-17 25.7-17 13.8 0 20.7 9.8 25.7 17 5.1 7.3 7.7 10.2 12.7 10.2s7.5-3 12.7-10.2c5.1-7.2 12-17 25.7-17 4.4 0 8 3.6 8 8s-3.6 8-8 8c-5 0-7.5 3-12.7 10.2-5.1 7.2-12 17-25.7 17s-20.7-9.8-25.7-17c-5.1-7.3-7.7-10.2-12.7-10.2s-7.5 3-12.7 10.2c-5.1 7.2-12 17-25.7 17s-20.7-9.8-25.7-17c-5.1-7.3-7.7-10.2-12.7-10.2s-7.5 3-12.7 10.2c-2.5 3.6-5.5 7.8-9.5 11.1 26.1 5.8 50.1 19.5 68.4 39.5 20.1 22 30.7 49.2 30.4 77.4 0 3-0.2 5.9-0.4 8.9v0.4c0 0.1 0 0.3-0.1 0.4-1.5 14-9 49.4-9.3 50.9-0.8 3.7-4 6.3-7.8 6.3h-362.5c-8.8 51.3-45 93.3-92.9 110.5v106.9c5.8 1.7 10 7.1 10 13.4v20c0 6.3-4.2 11.7-10 13.4v18.2c0 12.1-9.8 21.9-21.9 21.9h-52.1c-12.1 0-21.9-9.8-21.9-21.9v-18.2c-5.8-1.7-10-7.1-10-13.4v-20c0-6.3 4.2-11.7 10-13.4v-106.8c-55.3-19.8-95-72.7-95-134.7v-432c0-9.5 3.3-18.3 8.7-25.2h-119.8c-4.4 0-8-3.6-8-8s3.6-8 8-8h824c4.4 0 8 3.6 8 8s-3.6 8-8 8h-168v238.6c1.2-0.7 2.5-1.1 4-1.1 5 0 7.5-3 12.7-10.2 5.1-7.2 12-17 25.7-17s20.7 9.8 25.7 17c5.1 7.3 7.7 10.2 12.7 10.2s7.5-3 12.7-10.2c5.1-7.2 12-17 25.7-17 13.8 0 20.7 9.8 25.7 17 5.1 7.3 7.7 10.2 12.7 10.2s7.5-3 12.7-10.2c5.1-7.2 12-17 25.7-17 4.4 0 8 3.6 8 8s-3.6 7.9-8 7.9zM643.2 482.5h206.9c1.7-8.4 4.8-23.6 6.6-34.5h-220.6c1.9 11 5.2 26.1 7.1 34.5zM490 365.7c-16.2 17.8-25.1 39.4-25.7 61.7v3.7h154v-2.2c0.2-26.9 10.6-52.8 29.9-74 0.5-0.5 1-1.1 1.5-1.6-20.4-16.4-46.7-25.8-73-25.8-32.6 0-65 14.3-86.7 38.2zM488.2 344.5c-0.1 0.1-0.2 0.1-0.2 0.2 0-0.1 0.1-0.1 0.2-0.2zM484.3 348l-0.5 0.5c0.2-0.1 0.3-0.3 0.5-0.5zM626.8 482.5s0 0.1 0 0c-2.1-9.7-5.4-24.9-7-35.3h-153.8c1.9 11 5.3 26.7 7.2 35.3h153.6zM321.3 780.8c0 3.3 2.7 5.9 5.9 5.9h52.1c3.3 0 5.9-2.7 5.9-5.9v-17.6h-64v17.6zM311.3 747.2h84v-16h-84v16zM385.3 715.2v-101.6c-10.3 2.4-21 3.6-32 3.6s-21.7-1.3-32-3.6v101.6h64zM226.3 474.3c0 33.8 13.3 65.6 37.3 89.7 13.1 13.1 28.4 22.9 45.1 29.2 14.1 5.3 29.1 8.1 44.5 8.1s30.5-2.8 44.5-8.1c16.7-6.3 32.1-16.2 45.1-29.2 18.2-18.2 30.2-40.9 35-65.4h-11.2c-3.7 0-7-2.6-7.8-6.2-0.4-1.6-8.9-38.7-10.2-52-0.4-3.9-0.5-7.8-0.5-11.6 0.1-27 10.5-53 29.9-74.3 0.7-0.8 1.4-1.5 2.1-2.3v-309.8c0-13.8-11.2-25-25-25h-204c-13.8 0-25 11.2-25 25v431.9zM496.3 42.2v295.7c21-15.7 46.7-25.3 73-26.8v-294.1h-81.7c5.4 7 8.7 15.7 8.7 25.2zM585.3 17v294.1c28.3 1.8 55.2 12.7 76.7 30.8 21.7-17.7 49.2-28.5 77.3-30.2v-294.7h-154zM746.7 328c-32.5 0-64.9 14.2-86.6 38.1-17.1 18.8-26.1 41.9-25.7 65.7v0.3h223.9v-4.6c-0.8-22.6-9.8-44.3-26.1-62.1-21.5-23.5-53.5-37.4-85.5-37.4z" />
<glyph unicode="&#xe966;" d="M253.3 552.3c1.8-2 3.6-4.1 5.3-6.3 29.2-38.8 67.5-18.9 77-10.5 17.5 15.5 39.4 20.6 74.2 11.8 18.7-4.8 26.1 5.7 29.8 20-12.3 11.4-26.4 20.2-41.7 25.9-14.1 5.3-29.1 8.1-44.5 8.1s-30.5-2.8-44.5-8.1c-16.7-6.3-32.1-16.2-45.1-29.2-3.9-3.8-7.3-7.6-10.5-11.7z" />
</font>
</defs>
</svg>
